<?xml version="1.0" standalone="no"?>
<!DOCTYPE svg PUBLIC "-//W3C//DTD SVG 20010904//EN"
 "http://www.w3.org/TR/2001/REC-SVG-20010904/DTD/svg10.dtd">
<svg version="1.0" xmlns="http://www.w3.org/2000/svg"
 width="30.000000pt" height="30.000000pt" viewBox="0 0 30.000000 30.000000"
 preserveAspectRatio="xMidYMid meet">

<g transform="translate(0.000000,30.000000) scale(0.100000,-0.100000)"
fill="#000000" stroke="none">
<path d="M102 257 c-12 -13 -22 -33 -22 -44 0 -12 -8 -23 -20 -26 -19 -5 -21
-12 -18 -79 l3 -73 105 0 105 0 3 73 c3 67 1 74 -18 79 -13 3 -20 14 -20 28 0
28 -43 65 -75 65 -12 0 -31 -10 -43 -23z m82 -13 c9 -8 16 -24 16 -35 0 -16
-7 -19 -50 -19 -43 0 -50 3 -50 19 0 25 26 51 50 51 10 0 26 -7 34 -16z m0
-96 c8 -14 6 -22 -11 -38 -26 -24 -33 -25 -33 -5 0 8 5 15 10 15 6 0 10 7 10
15 0 17 -16 20 -25 5 -4 -6 -11 -8 -16 -4 -16 9 12 35 34 32 11 -2 25 -11 31
-20z m-24 -88 c0 -5 -4 -10 -9 -10 -6 0 -13 5 -16 10 -3 6 1 10 9 10 9 0 16
-4 16 -10z"/>
</g>
</svg>
